<svg width="122" height="93" viewBox="0 0 122 93" fill="none" xmlns="http://www.w3.org/2000/svg">
<g clip-path="url(#clip0_3_33)">
<path d="M61.3838 0H6.95992C5.11467 0.00208598 3.34559 0.738943 2.0408 2.04891C0.736007 3.35888 0.00206551 5.13497 -7.62939e-06 6.98754V71.1458C0.0020659 72.9984 0.736009 74.7745 2.0408 76.0844C3.34559 77.3944 5.11467 78.1312 6.95992 78.1333H61.3838C63.229 78.1312 64.9981 77.3944 66.3029 76.0844C67.6077 74.7745 68.3416 72.9984 68.3437 71.1458V6.98754C68.3416 5.13497 67.6077 3.35888 66.3029 2.04891C64.9981 0.738943 63.229 0.00208598 61.3838 0Z" fill="#F2F2F2"/>
<path d="M61.3838 2.01157H6.95992C5.64587 2.01304 4.38607 2.53777 3.4569 3.47063C2.52772 4.40348 2.00506 5.66828 2.00359 6.98754V71.1458C2.00507 72.465 2.52772 73.7299 3.4569 74.6627C4.38607 75.5956 5.64588 76.1203 6.95992 76.1218H61.3838C62.6979 76.1203 63.9577 75.5955 64.8868 74.6627C65.816 73.7298 66.3386 72.465 66.3401 71.1458V6.98754C66.3386 5.6683 65.816 4.4035 64.8868 3.47065C63.9577 2.53779 62.6979 2.01306 61.3838 2.01157Z" fill="white"/>
<path d="M53.193 20.6671H25.6712C25.3638 20.6671 25.069 20.5445 24.8517 20.3262C24.6343 20.108 24.5122 19.8121 24.5122 19.5035C24.5122 19.1948 24.6343 18.8989 24.8517 18.6807C25.069 18.4624 25.3638 18.3398 25.6712 18.3398H53.193C53.3452 18.3398 53.4959 18.3699 53.6365 18.4284C53.7772 18.4869 53.9049 18.5726 54.0125 18.6807C54.1202 18.7887 54.2055 18.917 54.2638 19.0582C54.322 19.1993 54.352 19.3506 54.352 19.5035C54.352 19.6563 54.322 19.8076 54.2638 19.9487C54.2055 20.0899 54.1202 20.2182 54.0125 20.3262C53.9049 20.4343 53.7772 20.52 53.6365 20.5785C53.4959 20.637 53.3452 20.6671 53.193 20.6671Z" fill="#F2F2F2"/>
<path d="M57.9739 24.5942H25.6712C25.3641 24.5939 25.0696 24.4712 24.8525 24.253C24.6354 24.0348 24.5135 23.739 24.5135 23.4306C24.5135 23.1223 24.6354 22.8265 24.8525 22.6083C25.0696 22.3901 25.3641 22.2674 25.6712 22.267H57.9739C58.2811 22.2674 58.5756 22.3901 58.7926 22.6083C59.0097 22.8265 59.1317 23.1223 59.1317 23.4306C59.1317 23.739 59.0097 24.0348 58.7926 24.253C58.5756 24.4712 58.2811 24.5939 57.9739 24.5942Z" fill="#F2F2F2"/>
<path d="M53.193 38.2667H25.6712C25.3638 38.2667 25.069 38.1441 24.8517 37.9259C24.6343 37.7077 24.5122 37.4117 24.5122 37.1031C24.5122 36.7945 24.6343 36.4985 24.8517 36.2803C25.069 36.0621 25.3638 35.9395 25.6712 35.9395H53.193C53.3452 35.9395 53.4959 35.9696 53.6365 36.028C53.7772 36.0865 53.9049 36.1722 54.0125 36.2803C54.1202 36.3883 54.2055 36.5166 54.2638 36.6578C54.322 36.799 54.352 36.9503 54.352 37.1031C54.352 37.2559 54.322 37.4072 54.2638 37.5484C54.2055 37.6896 54.1202 37.8178 54.0125 37.9259C53.9049 38.0339 53.7772 38.1196 53.6365 38.1781C53.4959 38.2366 53.3452 38.2667 53.193 38.2667Z" fill="#F2F2F2"/>
<path d="M57.9739 42.1939H25.6712C25.3641 42.1935 25.0696 42.0708 24.8525 41.8526C24.6354 41.6344 24.5135 41.3387 24.5135 41.0303C24.5135 40.7219 24.6354 40.4261 24.8525 40.2079C25.0696 39.9897 25.3641 39.867 25.6712 39.8667H57.9739C58.2811 39.867 58.5756 39.9897 58.7926 40.2079C59.0097 40.4261 59.1317 40.7219 59.1317 41.0303C59.1317 41.3387 59.0097 41.6344 58.7926 41.8526C58.5756 42.0708 58.2811 42.1935 57.9739 42.1939Z" fill="#F2F2F2"/>
<path d="M53.193 55.8663H25.6712C25.3638 55.8663 25.069 55.7437 24.8517 55.5255C24.6343 55.3073 24.5122 55.0113 24.5122 54.7027C24.5122 54.3941 24.6343 54.0981 24.8517 53.8799C25.069 53.6617 25.3638 53.5391 25.6712 53.5391H53.193C53.3453 53.5389 53.4962 53.5689 53.6369 53.6273C53.7777 53.6857 53.9056 53.7714 54.0134 53.8794C54.1212 53.9875 54.2066 54.1158 54.265 54.2571C54.3233 54.3984 54.3533 54.5498 54.3533 54.7027C54.3533 54.8556 54.3233 55.007 54.265 55.1483C54.2066 55.2896 54.1212 55.4179 54.0134 55.526C53.9056 55.634 53.7777 55.7197 53.6369 55.7781C53.4962 55.8365 53.3453 55.8665 53.193 55.8663Z" fill="#F2F2F2"/>
<path d="M57.9739 59.7935H25.6712C25.3641 59.7932 25.0696 59.6704 24.8525 59.4522C24.6354 59.2341 24.5135 58.9383 24.5135 58.6299C24.5135 58.3215 24.6354 58.0257 24.8525 57.8076C25.0696 57.5894 25.3641 57.4666 25.6712 57.4663H57.9739C58.2811 57.4666 58.5756 57.5894 58.7926 57.8076C59.0097 58.0257 59.1317 58.3215 59.1317 58.6299C59.1317 58.9383 59.0097 59.2341 58.7926 59.4522C58.5756 59.6704 58.2811 59.7932 57.9739 59.7935Z" fill="#F2F2F2"/>
<path d="M19.5062 26.377H9.76649C9.61914 26.3769 9.47788 26.318 9.37369 26.2134C9.2695 26.1088 9.2109 25.967 9.21074 25.8191V17.115C9.2109 16.9671 9.2695 16.8253 9.37369 16.7207C9.47788 16.6161 9.61914 16.5572 9.76649 16.5571H19.5062C19.6535 16.5572 19.7948 16.6161 19.899 16.7207C20.0032 16.8253 20.0618 16.9671 20.0619 17.115V25.8191C20.0618 25.967 20.0032 26.1088 19.899 26.2134C19.7948 26.318 19.6535 26.3769 19.5062 26.377Z" fill="#E6E6E6"/>
<path d="M19.5062 43.9766H9.76649C9.61914 43.9765 9.47788 43.9176 9.37369 43.813C9.2695 43.7084 9.2109 43.5666 9.21074 43.4187V34.7146C9.2109 34.5667 9.2695 34.4249 9.37369 34.3203C9.47788 34.2157 9.61914 34.1569 9.76649 34.1567H19.5062C19.6535 34.1569 19.7948 34.2157 19.899 34.3203C20.0032 34.4249 20.0618 34.5667 20.0619 34.7146V43.4187C20.0618 43.5666 20.0032 43.7084 19.899 43.813C19.7948 43.9176 19.6535 43.9765 19.5062 43.9766Z" fill="#E6E6E6"/>
<path d="M19.5062 61.5763H9.76649C9.61914 61.5761 9.47788 61.5173 9.37369 61.4127C9.2695 61.3081 9.2109 61.1662 9.21074 61.0183V52.3143C9.2109 52.1663 9.2695 52.0245 9.37369 51.9199C9.47788 51.8153 9.61914 51.7565 9.76649 51.7563H19.5062C19.6535 51.7565 19.7948 51.8153 19.899 51.9199C20.0032 52.0245 20.0618 52.1663 20.0619 52.3143V61.0183C20.0618 61.1662 20.0032 61.3081 19.899 61.4127C19.7948 61.5173 19.6535 61.5761 19.5062 61.5763Z" fill="#E6E6E6"/>
<path d="M109.328 60.6786L109.759 56.8878L111.924 37.8806L112.356 34.0897C112.564 32.2489 112.035 30.4006 110.887 28.9503C109.739 27.5 108.065 26.5661 106.232 26.3536L57.1092 20.7143C55.2757 20.5059 53.4347 21.0362 51.9901 22.1888C50.5455 23.3415 49.6153 25.0224 49.4036 26.8627L49.4025 26.8725L46.3764 53.4418L46.3752 53.4516C46.1677 55.2924 46.6959 57.1407 47.844 58.591C48.9921 60.0413 50.6663 60.9752 52.4994 61.1877L101.622 66.8271C103.456 67.0355 105.297 66.5052 106.741 65.3525C108.186 64.1998 109.116 62.5189 109.328 60.6786Z" fill="#E6E6E6"/>
<path d="M107.337 60.4501L107.848 55.9601L109.854 38.3511L110.365 33.8612C110.513 32.5503 110.137 31.2341 109.319 30.2013C108.502 29.1685 107.31 28.5035 106.004 28.3521L56.8816 22.7128C55.5759 22.5644 54.2648 22.942 53.2361 23.7628C52.2074 24.5837 51.545 25.7807 51.3943 27.0912L51.3931 27.101L48.367 53.6703L48.3659 53.6802C48.2181 54.9911 48.5942 56.3073 49.4118 57.34C50.2294 58.3728 51.4217 59.0378 52.727 59.1892L101.85 64.8285C103.155 64.9769 104.466 64.5993 105.495 63.7785C106.524 62.9577 107.186 61.7607 107.337 60.4501Z" fill="white"/>
<path d="M99.2964 36.3593L71.9528 33.2202C71.8015 33.203 71.655 33.156 71.5217 33.0819C71.3885 33.0078 71.2711 32.9081 71.1763 32.7884C71.0815 32.6688 71.0111 32.5315 70.9691 32.3845C70.9272 32.2375 70.9145 32.0837 70.9318 31.9318C70.9491 31.7798 70.996 31.6328 71.07 31.4992C71.1439 31.3655 71.2433 31.2477 71.3626 31.1526C71.4819 31.0576 71.6187 30.987 71.7651 30.945C71.9116 30.9031 72.0648 30.8905 72.2161 30.908L99.5597 34.0471C99.8649 34.0825 100.144 34.238 100.335 34.4795C100.526 34.7211 100.613 35.0288 100.578 35.3352C100.544 35.6417 100.389 35.9216 100.148 36.1136C99.9081 36.3056 99.6016 36.394 99.2964 36.3593Z" fill="#E6E6E6"/>
<path d="M103.602 40.8063L71.5084 37.1219C71.3571 37.1047 71.2106 37.0577 71.0774 36.9836C70.9441 36.9095 70.8268 36.8098 70.732 36.6902C70.6371 36.5705 70.5667 36.4333 70.5248 36.2863C70.4828 36.1393 70.4702 35.9855 70.4875 35.8335C70.5048 35.6816 70.5517 35.5346 70.6256 35.401C70.6996 35.2673 70.799 35.1495 70.9183 35.0544C71.0375 34.9594 71.1743 34.8888 71.3207 34.8468C71.4672 34.8049 71.6204 34.7923 71.7717 34.8098L103.865 38.4942C104.017 38.5115 104.163 38.5586 104.296 38.6328C104.429 38.7069 104.546 38.8066 104.641 38.9263C104.736 39.0459 104.806 39.1831 104.848 39.33C104.89 39.4769 104.902 39.6306 104.885 39.7824C104.868 39.9343 104.821 40.0812 104.747 40.2148C104.673 40.3484 104.574 40.4661 104.455 40.5612C104.336 40.6563 104.199 40.7269 104.053 40.7689C103.906 40.811 103.753 40.8237 103.602 40.8063Z" fill="#E6E6E6"/>
<path d="M102.707 48.5883L55.3913 43.1564C55.0861 43.121 54.8074 42.9655 54.6164 42.7239C54.4254 42.4824 54.3377 42.1746 54.3726 41.8682C54.4075 41.5618 54.5621 41.2818 54.8025 41.0898C55.0429 40.8978 55.3494 40.8095 55.6546 40.8442L102.97 46.2761C103.122 46.2934 103.268 46.3404 103.402 46.4144C103.535 46.4885 103.652 46.5883 103.747 46.7079C103.842 46.8276 103.912 46.9648 103.954 47.1118C103.996 47.2588 104.009 47.4126 103.991 47.5645C103.974 47.7164 103.927 47.8634 103.853 47.9971C103.779 48.1308 103.68 48.2485 103.561 48.3436C103.441 48.4387 103.305 48.5092 103.158 48.5512C103.012 48.5932 102.858 48.6058 102.707 48.5883H102.707Z" fill="#E6E6E6"/>
<path d="M102.415 52.5075L54.9469 47.0581C54.6417 47.0228 54.363 46.8672 54.172 46.6257C53.981 46.3842 53.8933 46.0764 53.9282 45.77C53.9631 45.4636 54.1177 45.1836 54.3581 44.9916C54.5985 44.7996 54.905 44.7112 55.2102 44.746L102.678 50.1954C102.983 50.2307 103.262 50.3862 103.453 50.6278C103.644 50.8693 103.732 51.1771 103.697 51.4835C103.662 51.7899 103.507 52.0699 103.267 52.2619C103.027 52.4539 102.72 52.5422 102.415 52.5075Z" fill="#E6E6E6"/>
<path d="M101.836 56.2338L54.5205 50.8019C54.3691 50.7847 54.2227 50.7377 54.0894 50.6636C53.9562 50.5895 53.8388 50.4898 53.744 50.3701C53.6492 50.2505 53.5788 50.1132 53.5368 49.9662C53.4949 49.8192 53.4822 49.6654 53.4995 49.5135C53.5168 49.3615 53.5637 49.2145 53.6376 49.0809C53.7116 48.9472 53.811 48.8294 53.9303 48.7343C54.0496 48.6393 54.1864 48.5687 54.3328 48.5268C54.4793 48.4848 54.6325 48.4722 54.7838 48.4897L102.1 53.9217C102.405 53.957 102.684 54.1125 102.875 54.3541C103.066 54.5956 103.153 54.9034 103.118 55.2098C103.083 55.5162 102.929 55.7962 102.688 55.9882C102.448 56.1802 102.142 56.2685 101.836 56.2338V56.2338Z" fill="#E6E6E6"/>
<path d="M101.544 60.153L54.0761 54.7036C53.7709 54.6683 53.4922 54.5128 53.3012 54.2712C53.1102 54.0297 53.0225 53.7219 53.0574 53.4155C53.0923 53.1091 53.2469 52.8291 53.4873 52.6371C53.7277 52.4451 54.0342 52.3568 54.3394 52.3915L101.807 57.8409C101.959 57.8581 102.105 57.9051 102.238 57.9792C102.372 58.0533 102.489 58.153 102.584 58.2726C102.679 58.3923 102.749 58.5295 102.791 58.6765C102.833 58.8235 102.846 58.9774 102.828 59.1293C102.811 59.2812 102.764 59.4282 102.69 59.5619C102.616 59.6956 102.517 59.8133 102.398 59.9084C102.278 60.0035 102.141 60.074 101.995 60.116C101.849 60.158 101.695 60.1706 101.544 60.153Z" fill="#E6E6E6"/>
<path d="M65.1815 38.19L55.5049 37.0791C55.3585 37.0621 55.2248 36.9876 55.1331 36.8718C55.0415 36.756 54.9993 36.6084 55.0159 36.4614L56.0008 27.8137C56.0177 27.6667 56.092 27.5325 56.2073 27.4405C56.3227 27.3484 56.4697 27.3061 56.6161 27.3227L66.2927 28.4336C66.4391 28.4506 66.5728 28.5252 66.6645 28.641C66.7562 28.7568 66.7983 28.9044 66.7818 29.0513L65.7968 37.699C65.7799 37.846 65.7056 37.9802 65.5903 38.0723C65.4749 38.1643 65.3279 38.2066 65.1815 38.19Z" fill="#6C63FF"/>
<path d="M109.963 37.5069C109.914 37.6998 109.908 37.9012 109.945 38.0967C109.982 38.2922 110.062 38.4771 110.178 38.6385C110.294 38.7998 110.444 38.9336 110.617 39.0305C110.79 39.1274 110.982 39.185 111.18 39.1992L112.16 42.1509L114.092 41.9906L112.65 37.8418C112.652 37.5067 112.531 37.1826 112.311 36.9308C112.09 36.6791 111.786 36.5173 111.454 36.476C111.123 36.4347 110.788 36.5169 110.513 36.7069C110.238 36.8969 110.042 37.1815 109.963 37.5069Z" fill="#FFB8B8"/>
<path d="M111.442 56.836C111.669 57.0448 111.946 57.1899 112.246 57.2567C112.546 57.3235 112.858 57.3096 113.152 57.2165C113.445 57.1234 113.708 56.9543 113.915 56.7263C114.122 56.4983 114.266 56.2194 114.332 55.9179L115.862 48.8799C116.123 47.6764 116.062 46.4247 115.683 45.2529L113.892 39.71C113.867 39.6304 113.824 39.5574 113.768 39.4959C113.711 39.4343 113.642 39.3858 113.566 39.3535C113.489 39.3212 113.406 39.3059 113.323 39.3087C113.239 39.3116 113.158 39.3324 113.083 39.3699L111.914 39.9573C111.793 40.0181 111.697 40.1196 111.643 40.2441C111.589 40.3687 111.58 40.5083 111.618 40.6388L111.736 41.0456C112.716 44.4287 112.767 48.0148 111.885 51.4248L110.933 55.1026C110.853 55.4107 110.858 55.7349 110.948 56.0402C111.038 56.3456 111.209 56.6207 111.442 56.836Z" fill="#6C63FF"/>
<path d="M105.32 91.4586L103.667 91.4585L102.88 85.056L105.32 85.0561L105.32 91.4586Z" fill="#FFB8B8"/>
<path d="M102.485 90.9842H105.674V92.9998H100.478C100.478 92.7351 100.53 92.473 100.631 92.2284C100.732 91.9839 100.879 91.7617 101.066 91.5745C101.252 91.3874 101.474 91.2389 101.717 91.1376C101.961 91.0363 102.222 90.9842 102.485 90.9842Z" fill="#2F2E41"/>
<path d="M114.232 91.4586L112.578 91.4585L111.792 85.056L114.232 85.0561L114.232 91.4586Z" fill="#FFB8B8"/>
<path d="M111.397 90.9842H114.586V92.9998H109.39C109.39 92.7351 109.442 92.473 109.542 92.2284C109.643 91.9839 109.791 91.7617 109.978 91.5745C110.164 91.3874 110.385 91.2389 110.629 91.1376C110.873 91.0363 111.134 90.9842 111.397 90.9842Z" fill="#2F2E41"/>
<path d="M109.39 45.9435C111.351 45.9435 112.942 44.3469 112.942 42.3774C112.942 40.4078 111.351 38.8112 109.39 38.8112C107.428 38.8112 105.837 40.4078 105.837 42.3774C105.837 44.3469 107.428 45.9435 109.39 45.9435Z" fill="#FFB8B8"/>
<path d="M97.2438 65.6345C97.2686 65.437 97.3362 65.2474 97.4419 65.079C97.5476 64.9106 97.6888 64.7675 97.8555 64.6598C98.0223 64.5521 98.2105 64.4824 98.407 64.4557C98.6034 64.4289 98.8033 64.4457 98.9926 64.5049L100.978 62.1158L102.718 62.9729L99.8675 66.3072C99.7474 66.6199 99.5172 66.8774 99.2205 67.0311C98.9239 67.1847 98.5814 67.2238 98.258 67.1408C97.9346 67.0579 97.6527 66.8588 97.4658 66.5811C97.2789 66.3035 97.1999 65.9667 97.2438 65.6345Z" fill="#FFB8B8"/>
<path d="M110.254 45.9434C110.789 45.955 111.32 45.8529 111.812 45.6437C112.305 45.4346 112.748 45.1232 113.112 44.7301C113.476 44.3369 113.753 43.8708 113.925 43.3625C114.097 42.8541 114.16 42.315 114.109 41.7805C114.059 41.2461 113.896 40.7284 113.632 40.2615C113.368 39.7946 113.009 39.3891 112.578 39.0715C112.147 38.754 111.653 38.5316 111.131 38.4191C110.608 38.3066 110.067 38.3064 109.544 38.4186C108.763 37.9424 107.855 37.622 106.945 37.7035C106.034 37.785 105.134 38.3275 104.794 39.179C104.454 40.0304 104.819 41.1528 105.666 41.4988C106.208 41.7206 106.821 41.6131 107.4 41.5236C107.979 41.4341 108.611 41.3758 109.115 41.6757C109.619 41.9757 109.845 42.78 109.394 43.155C109.155 43.3617 108.984 43.6367 108.904 43.9433C108.824 44.2499 108.84 44.5736 108.948 44.8713C109.175 45.4602 109.794 45.9334 110.254 45.9434Z" fill="#2F2E41"/>
<path d="M114.661 65.4935L115.291 89.5C115.294 89.58 115.279 89.6596 115.249 89.7338C115.219 89.808 115.174 89.8751 115.117 89.931C115.06 89.9869 114.992 90.0304 114.918 90.0587C114.843 90.0869 114.763 90.0994 114.684 90.0953L112.608 89.989C112.476 89.9822 112.35 89.93 112.251 89.841C112.152 89.752 112.087 89.6317 112.066 89.5002L109.597 73.9078C109.587 73.8411 109.553 73.7801 109.503 73.7355C109.452 73.6908 109.388 73.6652 109.321 73.6631C109.253 73.661 109.188 73.6825 109.134 73.724C109.081 73.7654 109.044 73.8241 109.029 73.89L105.688 88.9027C105.67 88.983 105.635 89.0585 105.586 89.1243C105.537 89.1901 105.474 89.2447 105.403 89.2845C105.331 89.3242 105.252 89.3482 105.17 89.3549C105.089 89.3616 105.006 89.3508 104.929 89.3233L102.869 89.197C102.75 89.1544 102.648 89.0739 102.579 88.9676C102.51 88.8613 102.477 88.7352 102.486 88.6085L104.284 65.2663L114.661 65.4935Z" fill="#2F2E41"/>
<path d="M115.673 54.0912C116.02 50.4533 113.356 47.1628 109.725 46.9039C108.16 46.7924 105.732 46.7525 104.931 48.8113C102.519 55.0131 106.741 54.8624 105.286 60.2357C103.832 65.6089 102.547 65.9169 104.543 66.3049C106.539 66.6929 115.515 68.9833 115.146 65.2014C114.92 62.8767 115.326 57.72 115.673 54.0912Z" fill="#6C63FF"/>
<path d="M105.647 48.1804C105.934 48.069 106.245 48.0355 106.548 48.0833C106.852 48.131 107.138 48.2584 107.377 48.4525C107.616 48.6465 107.8 48.9005 107.91 49.1887C108.02 49.4769 108.052 49.7891 108.004 50.0938L106.87 57.2071C106.676 58.4235 106.164 59.5663 105.385 60.5185L101.703 65.0231C101.651 65.0877 101.584 65.1402 101.51 65.1768C101.435 65.2134 101.353 65.2334 101.269 65.2353C101.186 65.2372 101.103 65.221 101.027 65.1879C100.951 65.1548 100.882 65.1054 100.826 65.0433L99.9517 64.0682C99.8612 63.9672 99.8087 63.8375 99.8035 63.7018C99.7984 63.566 99.8408 63.4327 99.9234 63.325L100.181 62.9894C102.323 60.1986 103.674 56.8787 104.092 53.3806L104.543 49.6077C104.581 49.2916 104.703 48.9918 104.898 48.7403C105.092 48.4889 105.351 48.2954 105.647 48.1804Z" fill="#6C63FF"/>
</g>
<defs>
<clipPath id="clip0_3_33">
<rect width="122" height="93" fill="white"/>
</clipPath>
</defs>
</svg>
