<svg width="274" height="42" viewBox="0 0 274 42" fill="none" xmlns="http://www.w3.org/2000/svg">
<path d="M50.4277 21.6797L60.7988 25.8105L60.0078 30.3809L46.3848 23.9297L46.9297 20.748L50.4277 21.6797ZM62.0645 18.4805L50.7617 22.4883L46.4551 23.4902L47.0703 19.9395L62.9434 13.5234L62.0645 18.4805ZM209.422 7.40625L200.369 35.1973H196.379L205.432 7.40625H209.422ZM222.746 22.4883L211.777 18.6738V13.6113L227.176 19.9922V23.7012L222.746 22.4883ZM211.777 25.6699L222.764 21.75L227.176 20.6426V24.334L211.777 30.7148V25.6699Z" fill="#5F00BA"/>
<path d="M71.8379 33H66.1426L66.8809 28.8867L71.9961 28.9219C73.5898 28.9219 74.9316 28.5469 76.0215 27.7969C77.1113 27.0352 77.9668 26.0391 78.5879 24.8086C79.2207 23.5664 79.6484 22.2246 79.8711 20.7832L80.0293 19.5352C80.1348 18.6445 80.1699 17.7422 80.1348 16.8281C80.0996 15.9023 79.9297 15.0469 79.625 14.2617C79.332 13.4766 78.8633 12.8379 78.2188 12.3457C77.5742 11.8535 76.7012 11.5898 75.5996 11.5547L69.7637 11.5371L70.4844 7.40625L75.7578 7.42383C77.4688 7.45898 78.957 7.81055 80.2227 8.47852C81.4883 9.13477 82.5254 10.0254 83.334 11.1504C84.1426 12.2754 84.7051 13.5645 85.0215 15.0176C85.3379 16.459 85.4023 17.9766 85.2148 19.5703L85.0742 20.8184C84.8398 22.5293 84.3535 24.1289 83.6152 25.6172C82.8887 27.1055 81.9453 28.4062 80.7852 29.5195C79.6367 30.6211 78.3066 31.4824 76.7949 32.1035C75.2832 32.7129 73.6309 33.0117 71.8379 33ZM73.5078 7.40625L69.0605 33H63.9102L68.3398 7.40625H73.5078ZM95.252 33.3516C93.9512 33.3281 92.7793 33.082 91.7363 32.6133C90.6934 32.1328 89.8203 31.4766 89.1172 30.6445C88.4258 29.8125 87.916 28.8457 87.5879 27.7441C87.2598 26.6426 87.1426 25.459 87.2363 24.1934L87.3066 23.4727C87.4473 22.1484 87.7695 20.8887 88.2734 19.6934C88.7773 18.498 89.4512 17.4434 90.2949 16.5293C91.1387 15.6035 92.1348 14.8828 93.2832 14.3672C94.4434 13.8398 95.7324 13.5938 97.1504 13.6289C98.4746 13.6523 99.6055 13.9219 100.543 14.4375C101.48 14.9531 102.236 15.6445 102.811 16.5117C103.385 17.3789 103.777 18.3691 103.988 19.4824C104.199 20.584 104.24 21.7383 104.111 22.9453L103.83 25.0547H89.1348L89.6797 21.6797L99.3828 21.6973L99.4707 21.2578C99.5645 20.6133 99.5352 20.0156 99.3828 19.4648C99.2305 18.9023 98.9434 18.4512 98.5215 18.1113C98.0996 17.7715 97.5371 17.5898 96.834 17.5664C96.0254 17.543 95.3457 17.7129 94.7949 18.0762C94.2441 18.4395 93.793 18.9199 93.4414 19.5176C93.0898 20.1152 92.8203 20.7656 92.6328 21.4688C92.4453 22.1602 92.3105 22.8281 92.2285 23.4727L92.1582 24.1758C92.0996 24.7969 92.1172 25.418 92.2109 26.0391C92.3047 26.6484 92.4863 27.1992 92.7559 27.6914C93.0371 28.1836 93.418 28.582 93.8984 28.8867C94.3906 29.1914 95.0059 29.3555 95.7441 29.3789C96.6816 29.4023 97.543 29.2207 98.3281 28.834C99.125 28.4355 99.8398 27.9082 100.473 27.252L102.688 29.9238C102.16 30.7207 101.486 31.377 100.666 31.8926C99.8574 32.3965 98.9844 32.7656 98.0469 33C97.1094 33.2461 96.1777 33.3633 95.252 33.3516ZM112.004 29.0977L118.42 13.9805H123.729L114.518 33H111.301L112.004 29.0977ZM111.529 13.9805L113.27 29.5723L112.812 33H109.754L106.484 13.9805H111.529Z" fill="white"/>
<path d="M134.768 24.1055H128.334V19.6582H134.768C135.717 19.6582 136.479 19.5 137.053 19.1836C137.639 18.8672 138.066 18.4336 138.336 17.8828C138.617 17.3203 138.758 16.6875 138.758 15.9844C138.758 15.2578 138.617 14.584 138.336 13.9629C138.066 13.3301 137.639 12.8203 137.053 12.4336C136.479 12.0469 135.717 11.8535 134.768 11.8535H130.408V33H124.678V7.40625H134.768C136.807 7.40625 138.553 7.77539 140.006 8.51367C141.471 9.25195 142.59 10.2656 143.363 11.5547C144.148 12.832 144.541 14.2969 144.541 15.9492C144.541 17.6016 144.148 19.0371 143.363 20.2559C142.59 21.4746 141.471 22.4238 140.006 23.1035C138.553 23.7715 136.807 24.1055 134.768 24.1055ZM146.703 23.6836V23.3145C146.703 21.9199 146.902 20.6367 147.301 19.4648C147.699 18.2812 148.285 17.2559 149.059 16.3887C149.832 15.5215 150.781 14.8477 151.906 14.3672C153.031 13.875 154.32 13.6289 155.773 13.6289C157.25 13.6289 158.551 13.875 159.676 14.3672C160.812 14.8477 161.768 15.5215 162.541 16.3887C163.314 17.2559 163.9 18.2812 164.299 19.4648C164.697 20.6367 164.896 21.9199 164.896 23.3145V23.6836C164.896 25.0664 164.697 26.3496 164.299 27.5332C163.9 28.7051 163.314 29.7305 162.541 30.6094C161.768 31.4766 160.818 32.1504 159.693 32.6309C158.568 33.1113 157.273 33.3516 155.809 33.3516C154.355 33.3516 153.061 33.1113 151.924 32.6309C150.787 32.1504 149.832 31.4766 149.059 30.6094C148.285 29.7305 147.699 28.7051 147.301 27.5332C146.902 26.3496 146.703 25.0664 146.703 23.6836ZM152.205 23.3145V23.6836C152.205 24.4336 152.264 25.1367 152.381 25.793C152.51 26.4492 152.715 27.0234 152.996 27.5156C153.277 28.0078 153.646 28.3945 154.104 28.6758C154.572 28.9453 155.141 29.0801 155.809 29.0801C156.477 29.0801 157.039 28.9453 157.496 28.6758C157.953 28.3945 158.322 28.0078 158.604 27.5156C158.885 27.0234 159.084 26.4492 159.201 25.793C159.33 25.1367 159.395 24.4336 159.395 23.6836V23.3145C159.395 22.5762 159.33 21.8848 159.201 21.2402C159.084 20.584 158.885 20.0039 158.604 19.5C158.322 18.9961 157.947 18.6035 157.479 18.3223C157.021 18.041 156.453 17.9004 155.773 17.9004C155.117 17.9004 154.561 18.041 154.104 18.3223C153.646 18.6035 153.277 18.9961 152.996 19.5C152.715 20.0039 152.51 20.584 152.381 21.2402C152.264 21.8848 152.205 22.5762 152.205 23.3145ZM177.904 27.709C177.904 27.3574 177.793 27.0469 177.57 26.7773C177.359 26.5078 176.973 26.2617 176.41 26.0391C175.859 25.8164 175.08 25.5938 174.072 25.3711C173.123 25.1719 172.238 24.9141 171.418 24.5977C170.598 24.2695 169.883 23.877 169.273 23.4199C168.664 22.9512 168.189 22.4004 167.85 21.7676C167.51 21.123 167.34 20.3906 167.34 19.5703C167.34 18.7734 167.51 18.0176 167.85 17.3027C168.201 16.5879 168.705 15.9551 169.361 15.4043C170.029 14.8535 170.838 14.4199 171.787 14.1035C172.748 13.7871 173.838 13.6289 175.057 13.6289C176.732 13.6289 178.18 13.8926 179.398 14.4199C180.617 14.9355 181.555 15.6621 182.211 16.5996C182.867 17.5254 183.195 18.5859 183.195 19.7812H177.711C177.711 19.2891 177.617 18.8613 177.43 18.498C177.242 18.1348 176.955 17.8535 176.568 17.6543C176.182 17.4434 175.672 17.3379 175.039 17.3379C174.547 17.3379 174.113 17.4258 173.738 17.6016C173.375 17.7656 173.088 17.9941 172.877 18.2871C172.678 18.5801 172.578 18.9199 172.578 19.3066C172.578 19.5762 172.637 19.8223 172.754 20.0449C172.883 20.2559 173.076 20.4551 173.334 20.6426C173.604 20.8184 173.949 20.9766 174.371 21.1172C174.805 21.2578 175.332 21.3926 175.953 21.5215C177.277 21.7676 178.484 22.1133 179.574 22.5586C180.676 23.0039 181.555 23.6191 182.211 24.4043C182.879 25.1895 183.213 26.2266 183.213 27.5156C183.213 28.3594 183.02 29.1328 182.633 29.8359C182.258 30.5391 181.713 31.1543 180.998 31.6816C180.283 32.209 179.428 32.6191 178.432 32.9121C177.436 33.2051 176.311 33.3516 175.057 33.3516C173.264 33.3516 171.746 33.0293 170.504 32.3848C169.262 31.7402 168.324 30.9316 167.691 29.959C167.07 28.9746 166.76 27.9668 166.76 26.9355H171.91C171.934 27.5684 172.092 28.084 172.385 28.4824C172.689 28.8809 173.082 29.1738 173.562 29.3613C174.043 29.5371 174.582 29.625 175.18 29.625C175.777 29.625 176.275 29.543 176.674 29.3789C177.072 29.2148 177.377 28.9922 177.588 28.7109C177.799 28.418 177.904 28.084 177.904 27.709ZM195.939 13.9805V17.8301H184.654V13.9805H195.939ZM187.238 9.26953H192.74V27.041C192.74 27.5684 192.805 27.9727 192.934 28.2539C193.062 28.5352 193.273 28.7344 193.566 28.8516C193.859 28.957 194.234 29.0098 194.691 29.0098C195.02 29.0098 195.301 28.998 195.535 28.9746C195.77 28.9512 195.986 28.9219 196.186 28.8867V32.8594C195.717 33.0117 195.219 33.1289 194.691 33.2109C194.164 33.3047 193.59 33.3516 192.969 33.3516C191.785 33.3516 190.76 33.1582 189.893 32.7715C189.037 32.3848 188.381 31.7754 187.924 30.9434C187.467 30.0996 187.238 29.0039 187.238 27.6562V9.26953Z" fill="#B191FF"/>
</svg>
